<?xml version="1.0" standalone="no"?>
<!DOCTYPE svg PUBLIC "-//W3C//DTD SVG 20010904//EN"
 "http://www.w3.org/TR/2001/REC-SVG-20010904/DTD/svg10.dtd">
<svg version="1.0" xmlns="http://www.w3.org/2000/svg"
 width="188.000000pt" height="48.000000pt" viewBox="0 0 188.000000 48.000000"
 preserveAspectRatio="xMidYMid meet">

<g transform="translate(0.000000,48.000000) scale(0.100000,-0.100000)"
fill="#000000" stroke="none">
<path d="M62 418 c-7 -7 -12 -43 -12 -90 l0 -78 85 0 85 0 0 90 0 90 -73 0
c-43 0 -78 -5 -85 -12z"/>
<path d="M550 345 c0 -60 3 -75 15 -75 11 0 15 12 16 48 l1 47 20 -47 c11 -27
26 -48 33 -48 7 0 21 19 31 43 l19 42 3 -42 c2 -29 8 -43 18 -43 11 0 14 16
14 75 0 67 -2 75 -19 75 -14 0 -27 -15 -43 -51 l-23 -52 -24 52 c-16 34 -30
51 -43 51 -16 0 -18 -9 -18 -75z"/>
<path d="M760 398 c-46 -49 -13 -128 54 -128 39 0 76 37 76 75 0 12 -9 34 -21
49 -27 34 -79 36 -109 4z m80 -18 c26 -26 25 -55 -2 -74 -28 -20 -33 -20 -52
0 -20 20 -20 58 0 78 20 21 30 20 54 -4z"/>
<path d="M910 345 c0 -60 3 -75 15 -75 11 0 15 12 16 48 l1 47 20 -47 c11 -27
26 -48 33 -48 6 0 20 19 30 43 l19 42 4 -42 c2 -29 8 -43 18 -43 11 0 14 16
14 75 0 67 -2 75 -19 75 -14 0 -27 -15 -43 -52 l-24 -52 -22 52 c-16 38 -28
52 -42 52 -18 0 -20 -7 -20 -75z"/>
<path d="M1109 413 c0 -4 -2 -38 -2 -75 l-2 -68 48 0 c35 0 47 4 44 13 -2 6
-15 12 -28 12 -15 0 -25 7 -27 18 -3 13 4 17 28 17 39 0 36 23 -3 28 -38 5
-34 30 6 34 17 2 32 8 32 13 0 12 -95 20 -96 8z"/>
<path d="M1230 345 c0 -59 3 -75 14 -75 11 0 16 14 18 48 l3 47 30 -47 c17
-28 38 -48 48 -48 15 0 17 10 17 75 0 60 -3 75 -15 75 -11 0 -15 -12 -15 -52
l0 -52 -36 52 c-52 74 -64 69 -64 -23z"/>
<path d="M1382 408 c3 -7 14 -14 26 -16 20 -3 22 -9 22 -63 0 -46 3 -59 15
-59 12 0 15 13 15 60 0 53 2 60 20 60 11 0 20 7 20 15 0 12 -13 15 -61 15 -44
0 -60 -3 -57 -12z"/>
<path d="M1531 394 c-24 -30 -26 -55 -10 -87 16 -30 28 -37 67 -37 65 0 94 69
51 124 -15 19 -30 26 -54 26 -24 0 -39 -7 -54 -26z m96 -30 c8 -22 -5 -61 -23
-68 -23 -9 -64 20 -64 44 0 11 9 29 20 40 17 17 24 18 41 10 11 -6 23 -18 26
-26z"/>
<path d="M1696 404 c-19 -18 -19 -20 -6 -44 5 -10 23 -21 40 -25 32 -7 40 -32
14 -42 -10 -4 -22 1 -29 10 -12 16 -35 23 -35 11 0 -24 24 -44 53 -44 45 0 59
12 55 46 -2 23 -10 31 -38 40 -19 6 -36 16 -38 22 -6 18 19 25 44 11 28 -15
42 -6 24 16 -16 20 -64 19 -84 -1z"/>
<path d="M50 146 c0 -97 1 -99 92 -95 79 3 78 2 78 89 0 91 1 90 -101 90 l-69
0 0 -84z"/>
<path d="M550 135 l0 -75 40 0 c78 0 116 74 65 125 -18 18 -35 25 -65 25 l-40
0 0 -75z m88 33 c29 -29 7 -78 -35 -78 -21 0 -23 5 -23 45 0 40 2 45 23 45 13
0 28 -5 35 -12z"/>
<path d="M700 135 c0 -60 3 -75 15 -75 12 0 15 15 15 75 0 60 -3 75 -15 75
-12 0 -15 -15 -15 -75z"/>
<path d="M778 136 c35 -97 51 -99 86 -11 30 74 31 85 13 85 -7 0 -22 -26 -34
-57 l-20 -57 -20 54 c-12 31 -28 56 -37 58 -13 3 -11 -9 12 -72z"/>
<path d="M910 135 l0 -75 51 0 c57 0 66 23 11 28 -43 4 -42 30 1 34 17 2 32 8
32 13 0 6 -15 11 -32 13 -43 4 -44 30 -1 34 55 5 46 28 -11 28 l-51 0 0 -75z"/>
<path d="M1040 135 c0 -60 3 -75 15 -75 10 0 15 10 15 30 0 17 4 30 10 30 5 0
16 -13 25 -30 20 -38 50 -43 33 -5 -8 19 -8 31 0 50 7 14 12 30 12 35 0 21
-34 40 -71 40 l-39 0 0 -75z m75 24 c0 -8 -10 -15 -22 -17 -19 -3 -23 1 -23
22 0 22 3 24 23 17 12 -5 22 -15 22 -22z"/>
<path d="M1167 204 c-10 -11 3 -24 24 -24 17 0 19 -7 19 -60 0 -47 3 -60 15
-60 12 0 15 13 15 59 0 54 2 60 22 63 12 2 23 9 26 16 3 9 -13 12 -55 12 -33
0 -63 -3 -66 -6z"/>
<path d="M1310 135 c0 -60 3 -75 15 -75 12 0 15 15 15 75 0 60 -3 75 -15 75
-12 0 -15 -15 -15 -75z"/>
<path d="M1370 135 l0 -75 40 0 c30 0 47 7 65 25 51 51 13 125 -65 125 l-40 0
0 -75z m90 25 c15 -28 3 -59 -27 -71 -35 -13 -42 -5 -38 44 3 52 0 47 30 47
14 0 29 -8 35 -20z"/>
<path d="M1540 190 c-12 -12 -20 -33 -20 -55 0 -46 29 -75 74 -75 39 0 76 37
76 75 0 12 -9 34 -21 49 -26 33 -79 36 -109 6z m80 -20 c11 -11 20 -27 20 -35
0 -16 -35 -55 -49 -55 -18 0 -41 31 -41 55 0 24 23 55 41 55 5 0 18 -9 29 -20z"/>
<path d="M1702 198 c-25 -25 -14 -54 29 -71 25 -10 39 -21 37 -29 -7 -20 -34
-21 -52 -3 -23 23 -42 8 -20 -16 21 -23 67 -25 89 -3 24 24 15 47 -27 67 -21
10 -38 23 -38 27 0 17 19 21 39 8 25 -15 39 -4 21 17 -15 18 -61 20 -78 3z"/>
</g>
</svg>
